<svg xmlns="http://www.w3.org/2000/svg"
     width="1000" height="169" viewBox="0 0 1000 169">
  <g transform="matrix(1,0,0,1,-0.6060595039730288,0.06868113951954058)">
    <svg viewBox="0 0 396 67" data-background-color="#ffffff" preserveAspectRatio="xMidYMid meet" height="169"
         width="1000" xmlns="http://www.w3.org/2000/svg">
      <g id="tight-bounds" transform="matrix(1,0,0,1,0.23999956357332053,-0.027228617442659697)">
        <svg viewBox="0 0 395.5199999999999 67.05445723488533" height="67.05445723488533" width="395.5199999999999">
          <g>
            <svg viewBox="0 0 661.403389152116 112.1309801600647" height="67.05445723488533" width="395.5199999999999">
              <g transform="matrix(1,0,0,1,265.8833891521161,10.630907250528125)">
                <svg viewBox="0 0 395.52 90.86916565900844" height="90.86916565900844" width="395.52">
                  <g>
                    <svg viewBox="0 0 395.52 90.86916565900844" height="90.86916565900844" width="395.52">
                      <g>
                        <svg viewBox="0 0 395.52 90.86916565900844" height="90.86916565900844" width="395.52">
                          <g transform="matrix(1,0,0,1,0,0)">
                            <svg width="395.52" viewBox="0.75 -37.5 165.38999938964844 38" height="90.86916565900844"
                                 data-palette-color="#2b2b2b">
                              <path
                                d="M15.7 0L10.95 0 10.95-30.7 0.75-30.7 0.75-35 25.9-35 25.9-30.7 15.7-30.7 15.7 0ZM33.9 0L29.35 0 29.35-37.5 33.9-37.5 33.9-20.25 32.3-20.35Q34.02-22.53 36.01-23.76 38-25 41.1-25L41.1-25Q44.27-25 46.4-23.58 48.52-22.15 49.59-19.6 50.65-17.05 50.65-13.65L50.65-13.65 50.65 0 46.15 0 46.15-13.1Q46.15-17.15 44.66-19.07 43.17-21 40.1-21L40.1-21Q37.77-21 35.98-19.75 34.2-18.5 33.15-16.4L33.15-16.4 33.9-19.15 33.9 0ZM68.25 0.5L68.25 0.5Q63.92 0.5 60.97-1.28 58.02-3.05 56.51-5.99 55-8.93 55-12.45L55-12.45Q55-15.88 56.41-18.73 57.82-21.58 60.51-23.29 63.2-25 67-25L67-25Q70.05-25 72.43-23.79 74.82-22.58 76.18-20.26 77.55-17.95 77.55-14.65L77.55-14.65Q77.55-14.13 77.51-13.51 77.47-12.9 77.35-12.25L77.35-12.25 59.6-12.25Q59.92-8.85 61.22-6.95 62.52-5.05 64.5-4.28 66.47-3.5 68.8-3.5L68.8-3.5Q70.5-3.5 72.35-3.85 74.2-4.2 75.85-4.95L75.85-4.95 76.45-1.4Q75.02-0.78 72.97-0.14 70.92 0.5 68.25 0.5ZM60-15.35L60-15.35 72.9-15.35Q72.9-17.07 72.25-18.35 71.6-19.63 70.27-20.31 68.95-21 66.9-21L66.9-21Q63.9-21 62.28-19.51 60.67-18.03 60-15.35ZM91.29 0L86.54 0 86.54-30.7 76.34-30.7 76.34-35 101.49-35 101.49-30.7 91.29-30.7 91.29 0ZM107.94 0.5L107.94 0.5Q105.67 0.5 103.97-0.43 102.27-1.35 101.33-2.95 100.39-4.55 100.39-6.6L100.39-6.6Q100.39-8.68 101.3-10.16 102.22-11.65 103.75-12.64 105.29-13.63 107.19-14.21 109.09-14.8 111.13-15.06 113.17-15.33 115.04-15.35L115.04-15.35Q115.04-18.85 113.67-19.93 112.29-21 109.69-21L109.69-21Q108.32-21 106.75-20.58 105.19-20.15 103.24-18.8L103.24-18.8 102.59-22.45Q104.07-23.58 106.27-24.29 108.47-25 110.89-25L110.89-25Q113.99-25 115.89-23.91 117.79-22.83 118.67-20.25 119.54-17.68 119.54-13.25L119.54-13.25 119.54-8.25Q119.54-6.5 119.7-5.36 119.87-4.23 120.45-3.66 121.04-3.1 122.34-3.1L122.34-3.1 122.79-3.1 122.09 0.5 121.74 0.5Q119.57 0.5 118.38 0.08 117.19-0.35 116.57-1.15 115.94-1.95 115.44-3.1L115.44-3.1Q114.07-1.5 112.19-0.5 110.32 0.5 107.94 0.5ZM108.79-3.1L108.79-3.1Q110.59-3.1 112.28-4 113.97-4.9 115.04-6.4L115.04-6.4 115.04-12.25Q111.47-12.13 109.25-11.55 107.04-10.98 106.02-9.83 104.99-8.68 104.99-6.85L104.99-6.85Q104.99-4.88 106.05-3.99 107.12-3.1 108.79-3.1ZM133.19 0.5L133.19 0.5Q129.94 0.5 127.8-0.28 125.66-1.05 124.79-1.65L124.79-1.65 125.34-6Q126.14-5.3 128.16-4.4 130.19-3.5 132.99-3.5L132.99-3.5Q135.36-3.5 136.63-4.3 137.89-5.1 137.89-6.55L137.89-6.55Q137.89-7.83 137.08-8.61 136.26-9.4 135.13-9.86 133.99-10.33 132.99-10.6L132.99-10.6Q131.31-11.05 129.53-11.74 127.74-12.43 126.51-13.8 125.29-15.18 125.29-17.65L125.29-17.65Q125.29-19.53 126.19-21.21 127.09-22.9 129.11-23.95 131.14-25 134.49-25L134.49-25Q136.94-25 138.48-24.49 140.01-23.98 141.14-23.4L141.14-23.4 140.59-19.3Q139.51-20.2 138.09-20.83 136.66-21.45 134.59-21.45L134.59-21.45Q132.49-21.45 131.16-20.66 129.84-19.88 129.84-18.15L129.84-18.15Q129.84-16.43 131.25-15.7 132.66-14.98 135.54-14.1L135.54-14.1Q136.44-13.85 137.63-13.38 138.81-12.9 139.94-12.1 141.06-11.3 141.8-10.01 142.54-8.72 142.54-6.8L142.54-6.8Q142.54-5.18 141.76-3.49 140.99-1.8 138.96-0.65 136.94 0.5 133.19 0.5ZM151.39 0L146.89 0 146.89-37.5 151.39-37.5 151.39-13.45 160.39-24.5 165.89-24.5 156.14-13.1 166.14 0 160.64 0 151.39-12.45 151.39 0Z"
                                opacity="1" transform="matrix(1,0,0,1,0,0)" fill="#2b2b2b" class="undefined-text-0"
                                data-fill-palette-color="primary" id="text-0"></path>
                            </svg>
                          </g>
                        </svg>
                      </g>
                    </svg>
                  </g>
                </svg>
              </g>
              <g>
                <svg viewBox="0 0 244.43135999999998 112.1309801600647" height="112.1309801600647"
                     width="244.43135999999998">
                  <g>
                    <svg xmlns="http://www.w3.org/2000/svg" data-icon="task"
                         data-container-transform="translate(0 34)" viewBox="0 35.28099822998047 128 58.71900177001953"
                         x="0" y="0" height="112.1309801600647" width="244.43135999999998" class="icon-icon-0"
                         data-fill-palette-color="accent" id="icon-0">
                      <path
                        d="M58.781 1.281l-31.063 30.969-12.969-13.156-5.688 5.625 15.781 16 2.844 2.844 2.844-2.844 33.906-33.781-5.656-5.656z m-55.281 2.719c-1.967 0-3.5 1.533-3.5 3.5v49c0 1.967 1.533 3.5 3.5 3.5h49c1.967 0 3.5-1.533 3.5-3.5v-36.406l-4 4v31.906h-48v-48h43.188l4-4h-47.688z m64.5 12v4h60v-4h-60z m0 12v4h50v-4h-50z m0 12v4h54v-4h-54z"
                        transform="translate(0 34)" fill="#f4a424" data-fill-palette-color="accent"></path>
                    </svg>
                  </g>
                </svg>
              </g>
            </svg>
          </g>
          <defs></defs>
        </svg>
        <rect width="395.5199999999999" height="67.05445723488533" fill="none" stroke="none" visibility="hidden"></rect>
      </g>
    </svg>
  </g>
</svg>
